<?xml version="1.0" standalone="no"?>
<!DOCTYPE svg PUBLIC "-//W3C//DTD SVG 20010904//EN"
 "http://www.w3.org/TR/2001/REC-SVG-20010904/DTD/svg10.dtd">
<svg version="1.0" xmlns="http://www.w3.org/2000/svg"
 width="128.000000pt" height="128.000000pt" viewBox="0 0 128.000000 128.000000"
 preserveAspectRatio="xMidYMid meet">
<metadata>
Created by potrace 1.14, written by Peter Selinger 2001-2017
</metadata>
<g transform="translate(0.000000,128.000000) scale(0.100000,-0.100000)"
fill="#000000" stroke="none">
<path d="M112 918 l3 -213 253 -3 252 -2 0 -30 0 -30 -242 -2 -243 -3 -3 -262
-2 -263 510 0 510 0 -2 262 -3 263 -242 3 -243 2 0 30 0 30 253 2 252 3 3 213
2 212 -530 0 -530 0 2 -212z m998 -543 l0 -225 -215 0 -215 0 0 190 0 190
-209 0 c-181 0 -210 -2 -215 -16 -3 -9 -6 -94 -6 -190 l0 -174 -40 0 -40 0 0
225 0 225 470 0 470 0 0 -225z"/>
<path d="M704 517 c-2 -7 -3 -58 -2 -113 l3 -99 170 0 170 0 0 110 0 110 -168
2 c-131 2 -169 0 -173 -10z m126 -102 l0 -75 -40 0 -40 0 0 75 0 75 40 0 40 0
0 -75z m170 0 l0 -75 -40 0 -40 0 0 75 0 75 40 0 40 0 0 -75z"/>
</g>
</svg>
